<svg version="1.0" xmlns="http://www.w3.org/2000/svg"
 width="800.000000pt" height="800.000000pt" viewBox="0 0 800.000000 800.000000"
 preserveAspectRatio="xMidYMid meet">

<g transform="translate(0.000000,800.000000) scale(0.100000,-0.100000)"
fill="#efb810" stroke="none">
<path d="M3805 7989 c-77 -5 -223 -18 -325 -30 -164 -18 -202 -26 -340 -71
-202 -66 -295 -113 -342 -176 -89 -117 -90 -159 -12 -309 l57 -108 -11 -55
c-10 -55 -4 -112 17 -179 13 -42 9 -49 -35 -57 -44 -8 -96 14 -120 51 -27 41
-44 132 -44 240 l0 101 -38 37 -37 37 -135 -10 c-74 -6 -200 -15 -280 -20 -79
-6 -145 -12 -146 -13 -6 -6 -25 -214 -35 -387 -10 -176 -9 -222 10 -465 43
-536 67 -711 142 -1015 60 -242 131 -462 196 -603 45 -100 170 -327 252 -457
22 -36 52 -85 67 -110 39 -64 137 -203 202 -285 72 -90 305 -326 431 -435 54
-47 107 -98 116 -115 10 -16 49 -61 85 -100 64 -66 69 -75 94 -165 15 -52 41
-118 58 -148 30 -53 30 -53 10 -68 -27 -19 -38 -76 -22 -114 10 -25 9 -35 -10
-74 -38 -79 -94 -111 -268 -157 -73 -19 -83 -24 -88 -48 -10 -40 -18 -46 -101
-77 -90 -34 -133 -70 -133 -111 0 -20 -10 -36 -35 -56 -26 -21 -35 -36 -35
-57 0 -17 -4 -30 -10 -30 -5 0 -15 -12 -23 -28 -10 -22 -11 -161 -5 -737 l7
-710 -43 -40 c-45 -41 -126 -158 -145 -208 -27 -71 -4 -186 52 -265 57 -79
231 -178 427 -242 142 -47 273 -72 491 -96 160 -17 175 -17 365 0 225 20 455
50 517 68 67 19 205 77 302 126 155 80 214 161 223 303 4 62 1 82 -17 116 -46
91 -112 174 -168 211 l-25 15 6 236 c25 937 27 1203 12 1220 -9 10 -16 31 -16
47 0 18 -12 44 -32 68 -18 22 -39 53 -48 70 -11 23 -40 44 -117 84 -72 37
-103 59 -103 71 0 27 -30 49 -85 62 -28 6 -68 18 -90 26 -43 15 -165 111 -199
156 l-20 28 24 44 25 45 -24 43 -24 44 36 71 c19 39 43 105 53 146 16 70 21
78 70 121 29 25 63 62 74 83 15 25 63 66 148 127 263 187 524 487 785 900 92
146 213 398 342 710 91 219 135 368 200 666 43 199 48 228 85 551 25 223 30
305 30 495 -1 221 -15 672 -22 679 -3 2 -633 -33 -633 -36 0 0 1 -49 3 -109 4
-151 -5 -180 -86 -261 -67 -67 -120 -95 -197 -102 -28 -3 -30 0 -39 43 -8 43
-5 52 48 166 61 131 76 197 57 256 -24 70 -199 201 -345 258 -87 33 -367 101
-490 118 -88 12 -314 12 -521 0z m1993 -836 c7 -109 12 -310 12 -447 0 -217
-3 -271 -25 -415 -52 -335 -103 -585 -147 -721 -28 -86 -166 -445 -202 -523
-80 -176 -117 -249 -202 -398 -187 -332 -301 -478 -449 -579 -62 -42 -175
-105 -175 -98 0 2 16 104 35 228 119 756 121 771 301 2100 52 391 54 401 80
451 31 63 76 98 214 171 138 72 202 118 229 162 20 32 43 118 56 208 l6 47 67
4 c37 2 94 4 128 5 l60 2 12 -197z m-3358 6 c0 -11 7 -46 16 -77 22 -75 80
-130 224 -214 167 -97 212 -147 239 -268 5 -25 24 -169 40 -320 41 -367 78
-681 96 -815 8 -60 26 -211 40 -335 14 -124 30 -250 35 -280 6 -30 25 -176 45
-325 19 -148 42 -325 51 -393 9 -68 13 -126 10 -129 -7 -7 -84 38 -134 80 -22
19 -64 61 -92 93 -142 162 -407 630 -514 906 -89 230 -186 579 -206 738 -21
170 -50 525 -50 614 0 102 29 714 35 734 3 8 29 12 85 12 75 0 80 -1 80 -21z"/>
</g>
</svg>
