<svg version="1.0" xmlns="http://www.w3.org/2000/svg"
 width="1500.000000pt" height="1500.000000pt" viewBox="0 0 1500.000000 1500.000000"
 preserveAspectRatio="xMidYMid meet">

<g transform="translate(0.000000,1500.000000) scale(0.100000,-0.100000)"
fill="#efb810" stroke="none">
<path d="M1890 13954 c-83 -7 -184 -26 -262 -50 -107 -33 -341 -146 -397 -191
-51 -41 -202 -170 -292 -249 -32 -28 -91 -68 -131 -89 -88 -45 -118 -71 -118
-101 0 -26 52 -73 130 -118 64 -36 71 -56 40 -116 -34 -67 -44 -234 -30 -500
13 -248 27 -355 64 -493 25 -92 83 -247 127 -342 62 -135 215 -393 282 -477
41 -51 87 -113 102 -138 84 -136 259 -326 575 -622 377 -355 779 -652 1225
-908 295 -169 645 -334 885 -418 202 -70 575 -183 735 -222 210 -51 309 -73
460 -105 143 -31 375 -89 630 -159 105 -29 263 -95 320 -134 27 -18 49 -46 66
-82 20 -42 37 -61 70 -79 102 -57 197 -17 207 88 4 41 0 58 -21 94 -29 49 -99
117 -147 142 -55 29 -23 30 63 2 172 -55 421 -106 522 -107 28 0 88 -7 135
-15 l85 -14 62 -65 c64 -67 101 -133 133 -241 93 -305 17 -621 -196 -813 -37
-33 -162 -118 -287 -195 -218 -134 -310 -197 -418 -288 -75 -63 -235 -176
-349 -244 -52 -32 -213 -136 -358 -233 -264 -176 -331 -232 -372 -311 -27 -54
-57 -76 -145 -107 -55 -20 -92 -41 -122 -70 -50 -47 -53 -68 -25 -179 17 -64
18 -103 11 -450 -4 -209 -13 -420 -20 -470 -12 -89 -8 -915 7 -1680 4 -204 2
-335 -6 -410 -6 -60 -14 -150 -16 -200 -8 -152 -6 -147 -104 -245 -50 -50
-114 -127 -144 -173 -72 -108 -129 -174 -289 -332 -140 -137 -174 -188 -234
-342 -21 -56 -26 -87 -28 -173 -2 -83 -8 -122 -28 -184 -47 -140 -51 -182 -27
-251 39 -113 110 -193 250 -284 125 -81 236 -126 485 -196 375 -105 755 -168
1270 -210 110 -9 259 -21 330 -28 186 -16 1248 -16 1485 1 435 31 585 44 755
67 99 13 207 26 240 30 190 20 275 35 685 116 30 6 102 22 160 35 58 14 134
32 170 40 196 46 297 77 500 156 223 86 315 134 465 243 136 99 216 184 244
260 27 70 24 108 -14 216 -19 56 -25 92 -25 159 0 47 -7 112 -15 143 -8 32
-15 65 -15 73 0 33 -112 195 -172 246 -178 155 -203 183 -312 358 -60 96 -113
150 -181 186 -30 16 -56 37 -59 49 -3 11 -3 106 -1 210 3 105 8 402 11 660 3
259 8 695 12 970 5 381 4 517 -5 570 -19 106 -17 810 2 890 24 99 20 149 -15
189 -30 34 -114 75 -199 96 -52 14 -91 50 -91 84 0 14 -5 37 -12 52 -15 32
-376 273 -711 474 -217 130 -238 144 -273 196 -42 60 -84 89 -434 295 -293
171 -380 255 -466 446 -51 115 -58 149 -56 292 2 138 13 197 59 327 33 94 68
152 123 201 45 40 46 40 180 57 74 10 180 27 235 39 55 12 130 21 167 22 37 0
70 4 74 8 4 4 16 7 27 7 18 0 17 -3 -7 -35 -62 -81 -73 -155 -28 -198 31 -30
90 -57 125 -57 47 0 89 41 136 134 46 89 47 90 121 130 206 111 364 179 585
250 127 42 257 83 290 92 172 48 308 91 500 159 88 31 171 60 185 65 14 4 75
28 135 53 400 164 783 376 1065 591 119 90 115 87 316 259 82 70 182 156 222
190 144 123 371 387 490 572 36 55 77 118 93 141 46 67 198 367 225 445 14 41
29 94 34 119 4 25 22 83 39 130 17 47 38 117 46 155 9 39 22 95 30 125 52 198
58 234 51 330 -11 172 -25 315 -31 337 -12 37 3 70 50 117 72 70 63 108 -42
183 -36 26 -93 77 -127 113 -277 299 -433 404 -641 432 -93 13 -183 3 -325
-34 -130 -34 -254 -125 -308 -226 -51 -95 -86 -248 -76 -327 20 -155 81 -254
202 -332 52 -33 56 -34 140 -31 61 3 106 11 150 28 86 33 91 24 60 -125 -23
-115 -83 -233 -156 -308 -57 -59 -183 -124 -266 -137 -66 -10 -204 -3 -223 13
-20 15 -7 182 17 232 17 35 75 101 147 167 26 23 40 109 25 149 -19 49 -156
99 -271 99 -41 0 -192 9 -335 19 -596 45 -1530 91 -1823 91 -98 0 -259 4 -358
10 -314 18 -873 34 -1410 40 -286 4 -851 12 -1255 18 -1166 17 -2033 19 -2280
4 -118 -7 -318 -17 -445 -22 -463 -19 -843 -49 -910 -73 -65 -23 -80 -54 -77
-153 3 -89 -7 -122 -48 -159 -30 -27 -53 -76 -75 -158 -21 -80 -36 -91 -142
-107 -281 -40 -531 43 -716 239 -107 113 -167 263 -167 415 0 42 3 76 6 76 3
0 40 -17 82 -37 72 -35 83 -37 172 -38 91 0 98 2 170 38 116 60 204 154 246
262 37 97 15 314 -42 430 -63 124 -172 243 -284 309 -50 29 -138 65 -230 94
-38 12 -227 22 -300 16z m-305 -1096 c0 -228 10 -289 69 -408 99 -199 182
-299 341 -415 163 -118 259 -163 446 -209 95 -23 126 -26 288 -26 155 0 198 4
303 25 179 38 219 52 326 117 18 11 38 18 45 15 8 -3 24 -66 40 -158 36 -197
48 -248 96 -394 35 -108 57 -168 111 -290 9 -22 26 -60 36 -85 41 -101 172
-346 240 -450 250 -382 602 -755 1089 -1156 117 -96 340 -237 593 -374 190
-103 198 -116 48 -81 -44 11 -112 25 -151 32 -38 6 -126 24 -195 40 -69 16
-150 34 -180 40 -337 71 -837 231 -1102 353 -31 14 -59 26 -62 26 -16 0 -253
115 -346 167 -296 167 -390 224 -530 321 -353 245 -453 327 -686 559 -308 306
-554 599 -673 802 -182 309 -244 436 -304 626 -48 152 -52 181 -52 395 1 191
3 212 28 309 39 148 63 217 99 286 25 48 75 125 82 125 0 0 1 -87 1 -192z
m11739 -404 c30 -142 40 -283 28 -405 -25 -259 -155 -622 -300 -837 -265 -395
-472 -656 -655 -826 -103 -95 -144 -128 -362 -299 -249 -195 -600 -410 -930
-571 -287 -141 -649 -273 -621 -227 3 5 18 12 33 16 47 11 180 115 382 295 58
52 120 107 138 121 61 51 298 305 392 422 155 190 211 262 211 268 0 4 28 53
63 110 97 158 160 282 212 414 63 158 138 379 165 485 12 47 28 105 35 130 7
25 16 61 19 80 l6 35 192 1 c210 1 293 13 398 62 150 69 312 231 424 423 28
50 96 230 96 258 0 9 6 28 14 43 8 15 17 41 21 58 10 44 22 27 39 -56z m-2908
-3213 c-8 -12 -125 -76 -156 -86 -40 -12 -13 9 70 54 76 41 96 49 86 32z"/>
</g>
</svg>
