<svg version="1.0" xmlns="http://www.w3.org/2000/svg"
 width="300.000000pt" height="300.000000pt" viewBox="0 0 300.000000 300.000000"
 preserveAspectRatio="xMidYMid meet">
<g transform="translate(0.000000,300.000000) scale(0.100000,-0.100000)"
fill="#fff" stroke="none">
<path d="M1016 2728 c-8 -27 -36 -231 -32 -235 11 -12 42 22 39 42 -4 20 12
134 20 142 2 2 18 0 36 -3 17 -4 30 -9 27 -11 -3 -3 23 -19 57 -36 34 -17 65
-35 69 -41 4 -6 8 -7 8 -2 0 5 6 4 13 -2 22 -18 66 -21 94 -7 24 13 29 12 45
-2 22 -19 24 -37 3 -30 -8 4 -17 2 -20 -3 -4 -6 -17 -10 -30 -10 -13 0 -26 -4
-29 -8 -2 -4 -21 -9 -42 -10 -20 -2 -45 -7 -55 -12 -10 -6 -26 -10 -36 -10
-10 0 -26 -9 -36 -20 -9 -11 -24 -20 -33 -20 -17 0 -72 -34 -90 -56 -5 -7 -22
-16 -36 -19 -21 -5 -26 -3 -32 19 -3 13 -2 36 4 51 5 14 10 28 10 31 0 7 -23
5 -62 -7 -41 -11 -68 -48 -68 -92 0 -80 -156 -303 -232 -331 -28 -11 -174 -81
-230 -111 -25 -14 -24 -18 25 -78 23 -29 53 -68 67 -87 14 -19 44 -55 68 -80
40 -42 43 -44 56 -27 8 10 17 45 21 78 4 32 11 62 16 65 5 3 9 16 9 30 0 13 5
24 10 24 6 0 10 9 10 20 0 11 4 28 9 38 6 9 12 29 15 44 4 15 12 33 19 40 6 7
21 31 32 53 11 22 25 45 30 51 6 6 17 22 25 34 8 13 23 32 33 42 9 10 17 20
17 23 0 3 9 15 20 27 27 30 25 44 -4 25 -20 -14 -26 -14 -36 -3 -15 19 1 28
45 25 27 -3 43 4 82 37 26 23 59 47 73 54 14 7 27 16 30 19 3 4 32 21 65 38
79 41 190 72 293 80 45 3 82 8 82 9 0 2 -27 32 -61 65 l-60 62 -28 -27 c-15
-14 -34 -26 -42 -26 -7 0 -48 20 -89 45 -41 25 -79 45 -83 45 -5 0 -28 14 -52
30 -49 34 -54 35 -59 18z m-89 -323 c-4 -8 -2 -17 3 -20 6 -4 10 -16 10 -27 0
-12 -3 -18 -7 -15 -3 4 -11 -1 -18 -10 -15 -21 -45 -10 -40 14 14 69 16 73 36
73 15 0 19 -5 16 -15z m-230 -350 c-9 -8 -14 -21 -11 -29 3 -7 -2 -19 -11 -26
-8 -7 -15 -17 -15 -22 0 -5 -7 -25 -16 -46 -10 -20 -16 -45 -15 -54 1 -10 -3
-18 -8 -18 -6 0 -10 -3 -9 -7 3 -9 -18 -85 -35 -126 l-12 -27 -70 87 c-86 107
-101 128 -88 120 6 -4 13 -1 16 7 3 8 36 29 74 47 37 18 71 37 74 42 3 5 10 9
15 9 5 0 19 4 32 9 13 5 28 9 33 9 6 0 7 5 4 10 -3 6 0 10 8 10 8 0 20 7 27
15 7 9 15 13 18 11 2 -3 -3 -12 -11 -21z"/>
<path d="M1760 2581 c-60 -26 -104 -41 -122 -41 -22 0 -33 -19 -20 -32 13 -13
262 -21 262 -8 0 5 -11 21 -25 36 -14 15 -25 30 -25 33 0 3 -8 11 -17 17 -14
8 -27 7 -53 -5z m40 -36 c11 -13 8 -15 -21 -15 -32 1 -33 1 -15 15 24 18 21
18 36 0z"/>
<path d="M2020 2591 c-8 -4 -41 -13 -73 -20 -57 -12 -58 -13 -41 -32 9 -10 21
-19 26 -19 5 0 29 -13 53 -30 24 -16 46 -30 50 -30 3 0 16 -9 28 -21 32 -30
57 -42 57 -28 0 13 -17 70 -31 104 -5 11 -10 34 -11 50 -3 32 -28 43 -58 26z
m31 -69 c8 -39 -5 -41 -43 -8 -34 28 -34 33 -5 39 35 7 41 3 48 -31z"/>
<path d="M1415 2404 c-11 -3 -51 -12 -90 -21 -148 -34 -270 -107 -393 -236
-58 -61 -75 -86 -116 -172 -42 -89 -63 -153 -76 -235 -35 -224 29 -454 174
-625 102 -121 208 -194 365 -248 77 -27 101 -31 221 -33 114 -2 148 1 220 20
108 29 141 43 228 100 121 80 241 223 295 351 140 334 52 694 -225 925 -60 50
-98 73 -208 124 -58 28 -160 47 -270 51 -58 2 -114 2 -125 -1z m231 -35 c109
-20 230 -70 318 -132 44 -30 146 -128 146 -139 0 -6 15 -28 34 -50 33 -39 61
-87 68 -118 2 -8 6 -17 9 -20 16 -12 51 -152 56 -225 6 -92 -11 -251 -31 -292
-14 -29 -25 -53 -46 -110 -7 -18 -16 -30 -21 -27 -5 3 -6 -2 -3 -10 3 -9 1
-16 -6 -16 -6 0 -9 -4 -6 -9 3 -4 -3 -16 -14 -26 -11 -10 -20 -23 -20 -28 0
-5 -10 -20 -22 -32 -13 -12 -34 -35 -48 -51 -30 -34 -105 -94 -118 -94 -5 0
-19 -11 -32 -25 -13 -14 -27 -25 -32 -25 -4 0 -27 -9 -51 -19 -47 -22 -122
-44 -152 -46 -11 0 -26 -4 -33 -9 -17 -10 -272 -4 -265 7 3 5 -1 7 -8 6 -17
-3 -77 10 -99 22 -8 4 -49 23 -90 43 -42 19 -89 46 -105 61 -46 39 -55 46 -55
41 0 -7 -65 65 -113 125 -20 25 -37 49 -37 53 0 3 -11 23 -24 44 -12 20 -23
39 -24 42 0 3 -6 19 -12 35 -27 70 -53 206 -53 270 1 70 38 246 60 288 10 18
18 37 19 42 3 27 98 178 107 169 2 -2 17 14 32 36 15 22 32 40 37 40 11 0 68
46 65 51 -1 2 0 3 2 2 2 -1 17 7 32 18 16 11 29 17 29 12 0 -4 4 -3 8 2 10 15
131 72 167 80 17 4 48 9 70 12 22 3 42 7 44 9 9 8 160 4 217 -7z"/>
<path d="M1498 2335 c-2 -1 -40 -5 -86 -8 -45 -3 -95 -13 -110 -20 -15 -8 -52
-25 -82 -38 -30 -13 -62 -29 -71 -36 -8 -7 -21 -13 -28 -13 -29 0 -231 -225
-231 -257 0 -5 -8 -18 -17 -29 -10 -11 -20 -26 -22 -34 -2 -8 -12 -44 -22 -80
-11 -36 -22 -111 -26 -166 -5 -85 -2 -117 17 -195 20 -86 73 -206 110 -253 43
-55 106 -123 124 -136 12 -8 29 -22 40 -31 10 -10 31 -23 47 -29 16 -7 29 -16
29 -21 0 -5 9 -9 19 -9 11 0 22 -4 26 -9 5 -8 94 -43 120 -47 6 -1 12 -3 15
-4 45 -17 181 -23 273 -11 62 7 115 22 175 47 48 21 89 40 92 43 8 10 69 51
75 51 10 0 43 38 37 44 -3 3 1 6 8 6 7 0 27 15 42 33 16 17 26 26 22 18 -5 -9
-3 -12 4 -7 7 4 12 13 12 20 0 17 24 66 32 66 11 0 88 167 94 203 28 180 28
201 0 372 -2 11 -10 36 -19 56 -11 28 -12 40 -4 49 9 8 8 10 -5 5 -12 -5 -18
1 -23 24 -3 16 -13 35 -21 42 -8 6 -14 18 -14 25 0 8 -5 14 -10 14 -6 0 -13 7
-17 16 -3 9 -19 30 -34 47 -16 17 -29 37 -29 44 0 7 -6 12 -12 11 -7 -2 -12 3
-10 10 1 8 -2 11 -7 8 -5 -4 -12 -2 -16 4 -13 21 -127 90 -138 83 -7 -3 -9 -3
-5 1 8 9 -14 36 -23 30 -4 -2 -28 6 -55 17 -26 12 -62 23 -78 25 -17 1 -31 3
-31 4 0 6 -161 20 -167 15z m193 -50 c289 -73 498 -328 516 -631 7 -119 -14
-219 -74 -343 -37 -77 -59 -108 -126 -176 -89 -89 -166 -137 -282 -176 -61
-21 -88 -24 -210 -23 -132 0 -145 2 -224 32 -248 94 -409 291 -455 555 -47
272 108 577 360 705 56 29 159 63 219 73 69 11 200 3 276 -16z"/>
<path d="M1510 2227 c0 -57 -29 -136 -66 -177 -42 -46 -85 -68 -167 -82 l-62
-11 63 -13 c65 -13 134 -47 164 -80 30 -35 59 -101 65 -153 6 -51 23 -72 23
-28 0 53 32 130 73 174 45 49 96 76 167 88 l45 8 -65 17 c-36 9 -79 24 -97 33
-58 31 -110 118 -120 198 -7 57 -23 76 -23 26z m35 -147 c8 -25 37 -57 88 -94
41 -31 46 -43 20 -53 -16 -6 -34 -20 -71 -53 -10 -8 -23 -27 -31 -42 -8 -16
-18 -28 -23 -28 -10 0 -38 25 -38 34 0 3 -16 22 -36 43 -20 21 -33 31 -29 23
5 -12 4 -12 -7 1 -7 9 -24 22 -37 29 -23 12 -23 13 -5 23 10 6 22 15 26 21 4
6 8 8 8 4 0 -11 66 54 85 85 20 32 41 35 50 7z"/>
<path d="M1857 1875 c-10 -71 -47 -144 -95 -187 -41 -37 -120 -68 -173 -68
-51 0 -39 -17 16 -24 83 -9 130 -33 180 -88 46 -51 75 -121 75 -182 1 -44 16
-14 23 47 8 57 35 113 74 149 37 35 130 78 171 78 17 0 32 5 32 10 0 6 -13 10
-30 10 -55 0 -136 38 -179 85 -47 51 -57 74 -75 160 l-13 60 -6 -50z m47 -165
c19 -27 48 -57 63 -67 41 -26 44 -35 20 -55 -40 -33 -88 -83 -98 -100 -15 -27
-31 -21 -63 23 -15 22 -46 52 -67 66 -45 30 -43 37 23 87 26 20 49 45 53 56 3
11 11 20 16 20 6 0 7 5 4 10 -3 6 -2 10 3 10 6 0 26 -22 46 -50z"/>
<path d="M866 1654 c-4 -19 -10 -42 -13 -50 -3 -9 2 -14 16 -14 12 0 21 6 21
15 0 8 4 15 10 15 5 0 7 -7 4 -15 -5 -11 1 -15 21 -15 19 0 26 4 22 14 -3 8
-9 31 -13 50 -5 31 -10 36 -34 36 -24 0 -29 -5 -34 -36z"/>
<path d="M975 1656 c-27 -19 -16 -60 18 -64 32 -4 37 13 6 21 -12 3 -18 10
-15 16 4 6 13 8 21 4 9 -3 15 1 15 10 0 21 -25 28 -45 13z"/>
<path d="M1138 1662 c-25 -3 -28 -8 -28 -38 0 -30 3 -34 26 -34 23 0 25 2 13
16 -11 14 -10 18 5 29 25 18 17 31 -16 27z"/>
<path d="M1034 1646 c-12 -31 0 -51 34 -54 36 -4 44 14 10 21 l-23 4 23 2 c17
1 22 6 20 19 -4 22 -56 29 -64 8z"/>
<path d="M1181 1642 c-13 -25 5 -52 34 -52 28 0 35 20 8 21 -14 0 -13 2 4 9
15 6 21 15 17 25 -8 21 -51 19 -63 -3z"/>
<path d="M1254 1625 c0 -30 3 -35 23 -35 20 0 22 4 17 25 -5 19 -2 25 10 25 9
0 16 5 16 10 0 6 -15 10 -33 10 -31 0 -33 -2 -33 -35z"/>
<path d="M1325 1641 c-9 -30 5 -51 35 -51 19 0 31 6 35 19 4 13 12 17 25 14
11 -3 20 -10 20 -15 0 -5 -9 -6 -20 -3 -12 4 -20 2 -20 -5 0 -16 62 -8 68 8 2
7 -5 16 -17 19 -12 3 -21 9 -21 14 0 5 7 6 15 3 8 -4 15 -1 15 5 0 14 -47 14
-56 0 -4 -8 -9 -8 -17 0 -18 18 -55 13 -62 -8z m45 -16 c0 -8 -4 -15 -10 -15
-5 0 -10 7 -10 15 0 8 5 15 10 15 6 0 10 -7 10 -15z"/>
<path d="M1510 1542 c0 -49 -28 -125 -62 -166 -37 -45 -112 -83 -181 -92 -54
-7 -46 -24 11 -24 110 0 216 -110 229 -235 6 -60 23 -76 23 -22 0 128 106 237
255 263 l40 7 -63 13 c-76 16 -143 53 -175 97 -31 41 -57 109 -57 147 0 16 -4
32 -10 35 -6 4 -10 -6 -10 -23z m75 -207 c13 -11 36 -30 51 -41 l27 -22 -23
-18 c-36 -29 -63 -56 -93 -94 l-28 -35 -17 25 c-33 48 -75 91 -105 106 l-29
16 28 17 c39 24 86 69 108 105 l18 28 20 -33 c11 -19 31 -43 43 -54z"/>
<path d="M2208 2357 c-32 -11 -58 -23 -58 -27 0 -11 94 -70 112 -70 11 0 15
14 16 55 1 30 -2 56 -6 58 -4 2 -33 -5 -64 -16z"/>
<path d="M600 2307 c0 -1 9 -20 20 -42 11 -22 20 -50 20 -62 0 -13 3 -23 8
-23 13 1 42 27 42 39 0 6 5 11 11 11 6 0 17 7 25 15 8 8 24 21 36 29 35 25 11
36 -78 36 -46 0 -84 -1 -84 -3z m83 -60 c-3 -5 -10 -4 -15 1 -6 6 -7 16 -3 22
6 9 9 9 16 -1 4 -7 5 -17 2 -22z"/>
<path d="M2293 2204 c4 -27 10 -82 13 -121 4 -40 10 -73 13 -73 3 0 40 32 81
71 41 40 99 87 128 106 28 18 52 37 52 42 0 5 -26 9 -57 9 -32 0 -98 3 -147 7
l-89 7 6 -48z m175 1 c9 -4 6 -15 -14 -40 -14 -19 -30 -32 -35 -29 -5 3 -9 1
-9 -4 0 -6 -16 -19 -35 -30 l-34 -21 -7 37 c-9 54 -9 55 -1 77 6 17 14 20 64
17 32 -2 64 -5 71 -7z"/>
<path d="M2409 1827 c-8 -18 -8 -51 -1 -118 26 -250 -41 -476 -195 -648 -71
-81 -175 -180 -194 -186 -28 -9 -31 -34 -6 -40 73 -16 113 -25 124 -25 6 0 19
26 28 57 23 77 51 130 72 136 10 3 63 13 118 22 167 29 150 11 153 161 l3 129
64 69 c36 39 65 78 65 87 0 10 -19 28 -45 43 -41 25 -45 30 -45 66 0 24 -6 42
-15 47 -11 6 -15 34 -17 113 l-3 105 -47 3 c-42 3 -49 0 -59 -21z m71 -100 c0
-46 3 -87 8 -91 4 -4 7 -11 8 -14 0 -4 6 -20 12 -35 7 -16 12 -34 12 -41 0 -7
16 -27 35 -46 41 -40 41 -39 -45 -139 -17 -19 -31 -42 -32 -50 -1 -9 -2 -23
-4 -31 -1 -8 -2 -54 -3 -101 -1 -95 -2 -96 -68 -105 -18 -2 -52 -8 -75 -14
-69 -15 -71 -13 -38 34 16 25 30 49 30 54 0 6 4 12 8 14 14 6 59 102 87 184
15 45 28 111 31 154 3 41 6 82 7 90 1 8 -2 57 -6 107 -9 96 -6 113 19 113 11
0 14 -17 14 -83z m-347 -837 c-5 -20 -39 -37 -51 -25 -7 7 34 45 48 45 5 0 6
-9 3 -20z"/>
<path d="M518 1640 c-40 -12 -88 -43 -88 -57 0 -6 18 -27 40 -44 22 -18 40
-37 40 -42 0 -5 34 -43 76 -85 42 -43 73 -68 69 -57 -4 11 -13 60 -21 109 -10
67 -21 100 -45 137 -17 27 -34 49 -38 48 -3 0 -18 -4 -33 -9z m44 -62 c30 -60
40 -101 26 -109 -8 -5 -20 3 -32 24 -11 18 -31 41 -43 52 -28 25 -29 34 -5 51
26 20 36 17 54 -18z"/>
<path d="M425 1408 c-33 -28 -61 -54 -63 -57 -1 -4 13 -13 32 -19 19 -7 72
-34 116 -59 72 -41 87 -54 128 -117 26 -39 50 -72 54 -74 5 -2 8 -10 8 -17 0
-7 4 -15 8 -17 8 -3 57 -72 160 -224 42 -62 44 -64 86 -64 24 0 75 -10 112
-21 49 -15 84 -20 120 -16 44 4 57 1 87 -19 20 -13 49 -24 64 -24 30 -1 63
-20 63 -38 0 -6 32 -9 89 -8 80 2 92 5 120 29 18 15 41 27 52 27 10 0 19 7 19
15 0 13 -22 15 -137 15 -165 1 -276 19 -354 58 -49 24 -62 26 -81 16 -34 -17
-100 -27 -107 -16 -3 6 -21 12 -39 15 -37 6 -62 23 -62 42 0 8 -4 15 -8 17 -5
2 -49 62 -99 133 -50 72 -101 142 -112 157 -12 14 -21 31 -21 38 0 21 -97 101
-170 137 -29 16 -55 33 -57 39 -2 6 14 29 37 50 77 73 41 75 -45 2z"/>
<path d="M645 1308 c4 -13 20 -50 36 -84 16 -33 29 -66 29 -72 0 -7 4 -12 10
-12 5 0 17 -16 26 -36 9 -20 25 -41 36 -47 10 -7 18 -20 18 -29 0 -10 5 -18
11 -18 6 0 31 -22 55 -49 52 -57 177 -145 217 -153 35 -7 35 5 0 23 -65 33
-123 78 -194 148 -78 79 -169 204 -169 234 0 9 -4 17 -8 17 -4 0 -14 17 -21
38 -8 20 -18 43 -23 50 -17 20 -30 14 -23 -10z"/>
<path d="M547 884 c-13 -13 -7 -40 13 -57 25 -21 25 -34 3 -41 -16 -6 -113
-189 -113 -213 0 -6 9 -13 20 -16 15 -4 24 2 35 24 9 16 15 30 13 31 -2 4 35
102 41 108 4 3 15 22 25 43 11 20 27 37 36 37 19 0 40 19 40 36 0 6 -21 20
-47 30 -27 11 -50 20 -54 22 -3 1 -8 -1 -12 -4z"/>
<path d="M2265 857 c-15 -23 -15 -28 1 -63 75 -176 84 -194 104 -194 10 0 22
-4 25 -10 10 -17 82 -12 89 6 11 29 6 45 -45 149 -52 106 -60 114 -131 131
-21 4 -30 1 -43 -19z m124 -110 c27 -49 38 -80 34 -95 -8 -32 -42 -28 -54 7
-5 15 -19 43 -30 62 -44 77 -45 80 -25 95 11 7 23 11 27 8 4 -2 26 -37 48 -77z"/>
<path d="M2165 790 c-3 -5 -14 -10 -24 -10 -10 0 -24 -7 -31 -15 -10 -12 -9
-20 4 -40 9 -13 16 -30 16 -37 0 -7 14 -39 30 -71 17 -31 28 -62 25 -67 -3 -5
-1 -11 5 -15 5 -3 14 -24 20 -45 6 -24 17 -40 26 -40 23 0 27 26 9 54 -11 17
-13 26 -6 26 7 0 9 5 6 10 -12 19 15 10 33 -11 27 -32 49 -41 73 -29 16 9 18
14 8 26 -6 8 -17 14 -23 14 -6 1 -22 10 -36 21 -22 19 -24 28 -22 78 2 43 -1
61 -12 71 -9 7 -16 20 -16 29 0 43 -66 82 -85 51z m56 -84 c23 -51 22 -99 -3
-104 -11 -2 -18 7 -23 29 -4 18 -15 46 -25 62 -21 34 -16 57 11 57 13 0 26
-15 40 -44z m29 -126 c0 -5 -7 -10 -15 -10 -8 0 -15 5 -15 10 0 6 7 10 15 10
8 0 15 -4 15 -10z"/>
<path d="M649 738 c-33 -92 -71 -204 -76 -229 -4 -24 -2 -27 38 -32 29 -4 46
-2 51 6 12 19 9 37 -6 37 -17 0 -28 27 -21 51 7 20 39 34 55 24 6 -4 10 5 10
20 0 14 -7 28 -15 31 -17 7 -20 37 -5 65 7 12 21 19 41 19 26 0 30 3 27 23 -2
18 -10 23 -43 25 -39 3 -40 1 -56 -40z"/>
<path d="M2044 735 c-10 -8 -27 -15 -37 -15 -16 0 -17 -5 -12 -32 4 -18 14
-49 22 -68 8 -19 21 -56 29 -82 8 -26 19 -50 24 -53 6 -3 10 -14 10 -24 0 -9
6 -25 13 -34 10 -14 18 -15 49 -7 42 12 51 21 42 45 -5 13 -14 15 -35 11 -23
-4 -32 -1 -45 19 -16 24 -12 63 9 76 16 11 0 38 -20 33 -13 -4 -23 5 -37 30
-20 37 -16 66 9 66 9 0 15 9 15 25 0 29 -8 31 -36 10z"/>
<path d="M762 678 c-6 -30 -12 -63 -12 -75 0 -11 -7 -26 -15 -33 -8 -7 -15
-21 -15 -32 0 -10 -7 -33 -16 -50 -13 -25 -14 -32 -2 -39 24 -16 35 -9 43 24
4 17 9 35 10 40 1 4 3 16 4 28 1 14 6 19 15 16 8 -3 17 1 20 9 3 9 1 12 -4 9
-6 -3 -10 4 -10 17 l0 22 23 -23 c15 -16 18 -25 10 -28 -15 -5 -18 -63 -3 -63
5 0 16 13 25 30 17 34 19 44 5 35 -5 -3 -10 -2 -10 4 0 5 5 13 10 16 6 3 10 2
10 -4 0 -6 7 -8 15 -5 15 6 21 25 8 23 -5 -1 -19 -1 -33 0 -24 1 -25 4 -25 63
0 56 -2 63 -20 66 -17 2 -22 -6 -33 -50z"/>
<path d="M1855 698 c-14 -29 -14 -31 16 -103 46 -113 54 -126 83 -144 38 -24
81 -31 80 -13 -1 6 -2 23 -2 37 -2 24 -3 25 -25 11 -12 -8 -27 -12 -33 -8 -14
9 -54 99 -54 122 0 10 -7 23 -15 30 -17 14 -19 29 -5 50 7 12 12 12 22 2 21
-21 40 -15 32 11 -9 30 -10 31 -50 32 -28 1 -37 -3 -49 -27z"/>
<path d="M911 683 c-26 -26 -51 -64 -51 -77 0 -3 6 -5 13 -4 18 4 12 -46 -14
-108 -23 -58 -22 -87 2 -92 17 -3 22 12 56 162 9 43 23 85 30 92 15 15 17 54
3 54 -6 0 -23 -12 -39 -27z"/>
<path d="M996 682 c-3 -3 -6 -15 -6 -26 0 -12 -7 -30 -15 -40 -8 -11 -15 -30
-15 -42 0 -24 -27 -119 -41 -147 -12 -22 -4 -37 20 -37 12 0 20 10 24 28 5 23
15 32 49 45 24 10 48 17 54 17 14 0 53 135 47 160 -5 17 -30 30 -90 43 -12 3
-24 2 -27 -1z m82 -56 c1 -2 -5 -28 -15 -59 -13 -44 -22 -56 -41 -60 -31 -6
-38 14 -22 66 7 23 14 48 16 56 3 9 12 11 32 6 15 -4 28 -8 30 -9z"/>
<path d="M1719 673 c-1 -9 1 -56 10 -208 6 -101 8 -110 26 -110 18 0 20 6 17
46 -3 43 -2 47 23 53 38 10 58 0 76 -36 17 -36 28 -42 48 -29 12 8 10 16 -12
49 -15 21 -38 58 -50 81 -43 81 -102 160 -119 161 -10 0 -18 -3 -19 -7z m53
-91 c-7 -2 -12 -8 -12 -14 0 -6 7 -8 15 -5 17 7 25 -4 32 -44 4 -25 1 -29 -20
-29 -19 0 -25 5 -26 23 0 12 -2 36 -5 54 -3 26 -1 30 12 25 10 -4 12 -7 4 -10z"/>
<path d="M1167 663 c-4 -3 -7 -17 -7 -29 0 -13 -4 -25 -9 -28 -5 -3 -11 -23
-14 -43 -3 -21 -10 -58 -17 -83 -6 -25 -13 -54 -15 -65 -1 -11 -6 -27 -9 -36
-6 -14 2 -17 46 -22 29 -2 53 -4 54 -3 1 0 4 13 8 29 6 24 4 27 -18 27 -14 0
-27 4 -31 9 -5 10 5 62 35 166 10 33 15 65 13 72 -5 14 -25 17 -36 6z"/>
<path d="M1266 644 c-3 -8 -6 -30 -6 -48 0 -18 -7 -77 -15 -132 -8 -54 -15
-104 -15 -109 0 -14 81 -16 98 -3 6 6 12 21 12 34 0 21 -4 23 -24 18 -20 -5
-24 -1 -29 22 -7 39 1 54 29 54 19 0 24 5 24 24 0 17 -5 23 -17 22 -13 -1 -19
8 -21 32 -4 39 11 62 37 55 23 -6 35 11 18 25 -6 5 -28 12 -48 16 -29 5 -38 3
-43 -10z"/>
<path d="M1566 617 c-28 -12 -28 -12 -22 -77 3 -36 6 -95 6 -132 l0 -68 29 0
c19 0 35 8 45 22 17 24 8 43 -22 43 -12 0 -18 10 -20 38 -3 32 0 37 17 37 27
0 28 30 1 37 -31 8 -42 91 -12 89 8 -1 17 5 19 12 5 14 -2 14 -41 -1z"/>
<path d="M1387 593 c-4 -3 -7 -62 -7 -130 0 -132 5 -142 46 -98 13 14 26 25
29 25 3 0 16 9 28 20 19 18 21 29 18 87 -2 53 -7 70 -24 84 -22 18 -77 25 -90
12z m67 -39 c35 -34 13 -145 -25 -132 -15 5 -20 118 -6 136 12 15 12 15 31 -4z"/>
</g>
</svg>
