<svg version="1.0" xmlns="http://www.w3.org/2000/svg"
 width="900.000000pt" height="165.000000pt" viewBox="0 0 900.000000 165.000000"
 preserveAspectRatio="xMidYMid meet">
<metadata>
</metadata>
<g transform="translate(0.000000,165.000000) scale(0.100000,-0.100000)"
fill="#fff" stroke="none">
<path d="M1507 1291 c-72 -24 -176 -100 -230 -167 -63 -77 -103 -163 -123
-265 -15 -71 -15 -91 -4 -148 21 -108 70 -176 160 -223 37 -19 60 -23 130 -23
76 0 93 4 151 32 35 18 84 50 109 73 24 22 47 40 51 40 4 0 15 -24 23 -54 32
-110 113 -127 220 -46 31 24 62 52 67 62 13 24 30 12 48 -34 18 -45 57 -73
101 -70 19 0 73 1 118 2 108 0 135 15 162 88 11 29 20 65 20 79 0 42 31 145
57 186 40 64 93 117 118 117 30 0 34 -20 19 -90 -15 -68 -38 -181 -59 -283 -8
-43 -13 -83 -10 -88 4 -5 29 -9 57 -9 45 0 54 4 84 36 24 25 34 45 34 67 0 46
46 185 87 263 23 44 85 104 107 104 8 0 16 -6 19 -12 5 -16 -9 -132 -23 -178
-5 -19 -10 -75 -10 -124 0 -89 0 -89 35 -122 41 -39 89 -50 146 -36 l41 10 -7
-46 c-3 -26 -12 -67 -20 -92 -36 -118 -29 -135 47 -119 69 15 110 61 132 151
11 40 22 77 26 81 4 4 40 9 81 10 60 2 81 8 114 29 74 48 132 127 183 250 26
62 32 90 32 150 0 62 -4 79 -25 110 -45 66 -136 71 -201 11 -13 -12 -33 -27
-44 -33 -18 -10 -20 -7 -20 19 0 51 -61 54 -125 6 -28 -21 -54 -80 -69 -155
-21 -109 -53 -194 -90 -243 -63 -83 -93 -53 -71 69 7 44 21 127 30 185 17 104
17 108 -3 152 -16 37 -27 47 -55 55 -55 15 -109 0 -178 -51 -62 -47 -79 -51
-79 -18 0 9 -13 29 -28 44 -37 36 -100 36 -157 2 -22 -13 -48 -29 -57 -35 -14
-8 -18 -7 -19 2 -1 7 -2 22 -3 33 -3 42 -92 23 -142 -30 -25 -28 -37 -59 -59
-160 -38 -169 -65 -244 -103 -278 -30 -27 -52 -12 -52 37 0 40 26 181 36 198
24 38 54 205 43 235 -11 30 -59 39 -105 17 -30 -14 -42 -15 -68 -6 -82 30
-158 0 -245 -95 -34 -36 -61 -71 -61 -78 0 -7 -7 -18 -15 -25 -8 -7 -15 -19
-15 -28 0 -21 -82 -127 -139 -179 -70 -64 -132 -95 -195 -95 -62 -1 -84 9
-119 56 -39 50 -58 133 -47 199 34 190 112 313 238 373 68 32 106 29 110 -8 3
-22 -4 -32 -37 -54 -35 -22 -48 -26 -88 -21 -65 7 -80 -4 -89 -60 -6 -41 -4
-49 16 -65 26 -21 62 -23 127 -5 90 23 193 154 193 244 0 26 -8 42 -31 64 -30
28 -35 29 -118 28 -51 -1 -105 -8 -134 -18z m640 -380 c-11 -88 -84 -236 -142
-290 -48 -44 -66 -49 -84 -27 -29 35 49 251 114 318 65 67 121 67 112 -1z
m1477 -13 c8 -34 -3 -128 -22 -173 -51 -123 -168 -234 -189 -179 -5 14 -1 36
26 142 18 68 135 232 166 232 7 0 15 -10 19 -22z"/>
<path d="M4608 1268 c-41 -63 -59 -112 -56 -151 2 -38 0 -42 -21 -45 -35 -5
-90 -43 -133 -90 -45 -50 -118 -199 -118 -242 0 -35 -22 -84 -54 -118 -24 -27
-95 -62 -126 -62 -74 0 -131 70 -110 134 12 36 26 46 65 46 32 0 90 27 140 65
56 42 71 62 95 126 20 53 21 59 6 88 -72 137 -314 62 -425 -133 -34 -59 -61
-147 -61 -200 0 -76 46 -157 113 -200 36 -22 149 -32 203 -17 43 12 124 74
124 96 0 30 19 22 49 -19 57 -81 160 -108 247 -66 55 27 128 105 158 172 55
120 57 128 58 221 1 82 -2 97 -23 129 -28 42 -66 68 -102 68 -14 0 -29 5 -32
10 -4 6 14 42 39 80 53 80 57 106 20 120 -36 14 -40 13 -56 -12z m-446 -327
c-4 -54 -61 -111 -111 -111 -38 0 -21 41 43 108 48 50 72 51 68 3z m438 -12
c6 -10 10 -36 10 -58 0 -50 -32 -187 -54 -229 -17 -32 -52 -62 -73 -62 -40 0
-60 120 -34 205 44 142 116 210 151 144z"/>
<path d="M6120 1283 c-41 -15 -100 -98 -100 -140 0 -40 -27 -60 -89 -66 -133
-14 -243 -119 -310 -297 -27 -72 -30 -227 -4 -270 45 -76 139 -65 243 29 25
23 48 41 53 41 4 0 10 -12 13 -27 20 -98 131 -119 218 -42 24 22 49 39 56 39
6 0 30 -16 53 -35 22 -19 57 -40 76 -45 53 -15 137 -12 179 6 43 18 100 69
113 102 13 33 31 23 50 -28 9 -24 29 -55 44 -68 25 -21 36 -24 82 -20 66 6
100 30 130 89 22 45 30 113 14 123 -5 3 -14 -7 -21 -23 -17 -43 -70 -92 -94
-89 -28 4 -32 54 -11 138 9 36 22 90 30 120 7 30 20 82 29 115 8 33 22 92 31
130 9 39 23 96 32 127 21 75 15 88 -41 88 -61 0 -106 -39 -134 -117 -20 -55
-67 -253 -93 -392 -22 -116 -133 -219 -223 -207 -56 7 -96 48 -96 100 0 56 9
65 66 75 56 9 136 49 177 89 31 30 77 120 77 152 0 59 -62 110 -134 110 -76 0
-179 -53 -247 -127 -62 -66 -109 -183 -109 -270 0 -44 -5 -58 -31 -88 -17 -19
-40 -35 -50 -35 -43 0 -36 96 27 325 7 28 18 70 23 95 6 25 19 83 30 130 29
126 31 146 18 159 -11 11 -51 14 -77 4z m-157 -343 c-6 -131 -112 -319 -180
-320 -20 0 -23 5 -23 35 0 82 66 249 117 296 34 32 65 49 78 45 6 -2 9 -27 8
-56z m567 3 c0 -30 -7 -43 -42 -75 -28 -25 -51 -38 -70 -38 -15 0 -28 4 -28 8
0 16 62 102 87 122 39 30 53 26 53 -17z"/>
<path d="M780 1239 c-22 -23 -40 -50 -40 -60 0 -31 -16 -29 -49 5 -63 65 -176
74 -283 23 -89 -42 -165 -141 -167 -218 -1 -30 23 -94 39 -104 6 -4 -15 -31
-48 -63 -47 -47 -61 -69 -76 -120 -16 -52 -17 -68 -7 -102 15 -49 43 -80 101
-111 40 -21 58 -24 160 -24 107 0 119 2 173 29 l58 29 30 -29 c27 -26 37 -29
94 -29 57 0 67 3 94 29 40 38 61 85 61 135 0 42 -15 55 -27 24 -3 -10 -20 -35
-36 -56 -23 -30 -35 -37 -56 -35 -33 4 -39 40 -18 112 8 28 22 87 32 131 10
44 23 103 31 130 7 28 19 77 28 110 8 33 22 87 30 121 9 33 16 72 16 87 0 26
-2 27 -50 27 -45 0 -54 -4 -90 -41z m-198 -96 c27 -25 22 -58 -14 -88 -45 -37
-49 -48 -37 -84 8 -22 16 -30 26 -27 8 3 27 6 43 6 16 0 35 7 44 15 34 35 46
4 25 -65 -11 -38 -24 -115 -38 -228 -5 -40 -10 -74 -12 -76 -45 -40 -178 -52
-235 -23 -83 43 -85 141 -3 205 14 11 51 25 82 31 92 17 117 40 103 96 -9 34
-39 39 -97 19 -62 -23 -72 -13 -65 63 6 65 35 113 96 156 31 21 58 22 82 0z"/>
<path d="M7534 1265 c-121 -38 -203 -113 -238 -217 -14 -44 -14 -52 0 -95 23
-68 57 -109 133 -158 115 -75 135 -113 93 -173 -35 -49 -70 -66 -138 -66 -48
-1 -67 3 -83 18 -32 29 -26 53 19 81 46 29 50 52 15 85 -67 63 -195 -19 -195
-125 0 -60 60 -126 133 -146 65 -18 184 -6 243 24 73 38 115 72 151 125 28 41
32 55 32 112 0 86 -26 124 -143 205 -50 34 -93 71 -98 85 -14 38 0 77 40 110
31 26 45 30 94 30 93 0 90 -34 -5 -71 -68 -26 -79 -44 -53 -84 33 -50 145 -23
199 49 21 27 27 46 27 85 0 61 -30 99 -98 125 -49 19 -72 19 -128 1z"/>
<path d="M8435 1101 c-40 -24 -61 -49 -80 -94 -21 -50 -19 -87 6 -113 19 -20
20 -26 9 -61 -24 -74 -100 -219 -129 -247 -47 -45 -64 -31 -58 52 5 80 29 209
57 312 32 114 32 115 -15 117 -30 2 -50 -4 -80 -25 -41 -29 -83 -99 -84 -140
-1 -22 -9 -53 -49 -182 -30 -99 -68 -153 -104 -148 -19 2 -24 10 -26 42 -4 49
29 205 73 346 8 25 16 59 17 75 3 29 1 30 -40 33 -93 7 -141 -59 -178 -248
-22 -108 -33 -218 -27 -268 14 -107 147 -125 252 -35 l44 37 36 -43 c31 -36
44 -44 82 -48 32 -4 57 0 82 12 33 15 38 16 59 1 27 -19 68 -21 89 -4 22 19
113 243 138 343 14 55 33 76 66 73 l30 -3 -3 -70 c-1 -38 -9 -95 -17 -126 -20
-78 -19 -133 5 -179 30 -58 98 -67 157 -21 38 30 93 107 93 130 0 30 -12 26
-53 -19 -51 -58 -67 -54 -67 18 0 31 7 82 15 112 8 30 18 92 21 137 6 67 4 87
-9 107 -22 32 -64 40 -117 22 -24 -8 -47 -13 -52 -10 -4 3 -8 28 -8 56 0 37
-5 54 -17 64 -26 19 -83 17 -118 -5z"/>
<path d="M5149 1070 c-20 -3 -57 -19 -83 -34 -39 -23 -47 -25 -51 -11 -3 8 -7
22 -10 30 -7 24 -84 19 -117 -8 -32 -26 -67 -100 -68 -140 0 -16 -4 -36 -10
-46 -5 -10 -14 -43 -19 -72 -6 -30 -20 -92 -31 -139 -35 -142 -38 -169 -23
-181 18 -15 81 -4 113 19 32 24 68 120 88 236 8 51 138 226 168 226 6 0 14 -7
17 -15 7 -16 -7 -110 -23 -165 -6 -19 -13 -84 -17 -145 -7 -135 3 -155 83
-162 59 -6 105 11 157 56 36 32 92 132 85 153 -3 7 -28 -12 -57 -40 -55 -54
-59 -56 -85 -46 -26 10 -23 52 18 226 9 36 16 96 16 132 0 58 -3 69 -27 95
-31 32 -69 41 -124 31z"/>
</g>
</svg>
